<svg width="40" height="40" viewBox="0 0 1000 1000" fill="none" xmlns="http://www.w3.org/2000/svg">
<path d="M500 0C223.917 0 0 229.535 0 512.64C0 739.142 143.25 931.296 341.958 999.093C366.917 1003.83 375 987.943 375 974.443V879.007C235.917 910.022 206.958 818.515 206.958 818.515C184.208 759.263 151.417 743.499 151.417 743.499C106.042 711.673 154.875 712.356 154.875 712.356C205.083 715.945 231.5 765.201 231.5 765.201C276.083 843.549 348.458 820.908 377 807.793C381.458 774.685 394.417 752.043 408.75 739.27C297.708 726.24 180.958 682.281 180.958 485.897C180.958 429.891 200.5 384.181 232.458 348.296C227.292 335.352 210.167 283.191 237.333 212.618C237.333 212.618 279.333 198.862 374.875 265.163C414.75 253.8 457.5 248.118 500 247.904C542.5 248.118 585.292 253.8 625.25 265.163C720.708 198.862 762.625 212.618 762.625 212.618C789.833 283.234 772.708 335.395 767.542 348.296C799.625 384.181 819 429.934 819 485.897C819 682.794 702.042 726.155 590.708 738.843C608.625 754.734 625 785.92 625 833.766V974.443C625 988.071 633 1004.09 658.375 999.05C856.917 931.168 1000 739.056 1000 512.64C1000 229.535 776.125 0 500 0Z" />
</svg>
