<svg width="40" height="40" viewBox="0 0 1000 1001" fill="none" xmlns="http://www.w3.org/2000/svg">
<path d="M500.047 0C364.254 0 347.212 0.593766 293.878 3.02087C240.648 5.4584 204.315 13.8856 172.523 26.2503C139.637 39.0212 111.741 56.1048 83.9488 83.9071C56.136 111.699 39.0525 139.595 26.2398 172.471C13.8439 204.273 5.4063 240.617 3.01044 293.826C0.625002 347.16 0 364.212 0 500.005C0 635.798 0.604183 652.788 3.02087 706.122C5.46882 759.352 13.896 795.685 26.2503 827.477C39.0317 860.363 56.1152 888.259 83.9175 916.051C111.699 943.864 139.595 960.989 172.46 973.76C204.273 986.125 240.617 994.552 293.836 996.99C347.17 999.417 364.202 1000.01 499.984 1000.01C635.788 1000.01 652.778 999.417 706.112 996.99C759.341 994.552 795.717 986.125 827.529 973.76C860.405 960.989 888.259 943.864 916.041 916.051C943.854 888.259 960.937 860.363 973.75 827.488C986.041 795.685 994.479 759.341 996.979 706.132C999.375 652.799 1000 635.798 1000 500.005C1000 364.212 999.375 347.17 996.979 293.836C994.479 240.607 986.041 204.273 973.75 172.481C960.937 139.595 943.854 111.699 916.041 83.9071C888.228 56.0943 860.415 39.0108 827.498 26.2503C795.623 13.8856 759.268 5.4584 706.039 3.02087C652.705 0.593766 635.725 0 499.891 0H500.047ZM455.192 90.1051C468.505 90.0843 483.359 90.1051 500.047 90.1051C633.548 90.1051 649.371 90.5843 702.091 92.9801C750.841 95.2093 777.3 103.355 794.925 110.199C818.258 119.262 834.894 130.095 852.384 147.595C869.884 165.095 880.717 181.762 889.801 205.096C896.645 222.7 904.801 249.159 907.02 297.909C909.416 350.618 909.936 366.452 909.936 499.891C909.936 633.33 909.416 649.163 907.02 701.872C904.791 750.622 896.645 777.081 889.801 794.685C880.738 818.019 869.884 834.634 852.384 852.124C834.884 869.624 818.269 880.457 794.925 889.52C777.321 896.395 750.841 904.52 702.091 906.749C649.382 909.145 633.548 909.666 500.047 909.666C366.535 909.666 350.712 909.145 298.003 906.749C249.253 904.499 222.794 896.353 205.158 889.509C181.825 880.447 165.158 869.613 147.658 852.113C130.158 834.613 119.324 817.988 110.241 794.644C103.397 777.039 95.2406 750.581 93.0218 701.83C90.6259 649.121 90.1468 633.288 90.1468 499.766C90.1468 366.243 90.6259 350.493 93.0218 297.784C95.251 249.034 103.397 222.575 110.241 204.95C119.303 181.616 130.158 164.95 147.658 147.449C165.158 129.949 181.825 119.116 205.158 110.032C222.784 103.157 249.253 95.0323 298.003 92.7926C344.129 90.7093 362.004 90.0843 455.192 89.9801V90.1051ZM766.945 173.127C733.82 173.127 706.945 199.971 706.945 233.107C706.945 266.232 733.82 293.107 766.945 293.107C800.071 293.107 826.946 266.232 826.946 233.107C826.946 199.981 800.071 173.106 766.945 173.106V173.127ZM500.047 243.232C358.243 243.232 243.273 358.202 243.273 500.005C243.273 641.809 358.243 756.727 500.047 756.727C641.85 756.727 756.779 641.809 756.779 500.005C756.779 358.202 641.85 243.232 500.047 243.232ZM500.047 333.337C592.089 333.337 666.715 407.952 666.715 500.005C666.715 592.048 592.089 666.674 500.047 666.674C407.994 666.674 333.378 592.048 333.378 500.005C333.378 407.952 407.994 333.337 500.047 333.337Z" fill="#131200"/>
</svg>
