<svg width="40" height="40" viewBox="0 0 1000 1000" fill="none" xmlns="http://www.w3.org/2000/svg">
<path d="M791.667 0H208.333C93.2917 0 0 93.2917 0 208.333V791.667C0 906.708 93.2917 1000 208.333 1000H791.667C906.75 1000 1000 906.708 1000 791.667V208.333C1000 93.2917 906.75 0 791.667 0ZM333.333 791.667H208.333V333.333H333.333V791.667ZM270.833 280.5C230.583 280.5 197.917 247.583 197.917 207C197.917 166.417 230.583 133.5 270.833 133.5C311.083 133.5 343.75 166.417 343.75 207C343.75 247.583 311.125 280.5 270.833 280.5ZM833.333 791.667H708.333V558.167C708.333 417.833 541.667 428.458 541.667 558.167V791.667H416.667V333.333H541.667V406.875C599.833 299.125 833.333 291.167 833.333 510.042V791.667Z" fill="#131200"/>
</svg>
